<svg xmlns="http://www.w3.org/2000/svg" width="15.748" height="18" viewBox="0 0 15.748 18" fill="none">
  <path d="M 7.874 0 C 7.252 0 6.749 0.503 6.749 1.125 L 6.749 1.754 C 4.2 2.159 2.249 4.366 2.249 7.031 L 2.249 8.205 C 2.249 9.802 1.704 11.352 0.709 12.596 L 0.186 13.254 C -0.018 13.507 -0.057 13.855 0.084 14.147 C 0.224 14.439 0.52 14.625 0.843 14.625 L 14.905 14.625 C 15.229 14.625 15.524 14.439 15.665 14.147 C 15.805 13.855 15.767 13.507 15.563 13.254 L 15.039 12.6 C 14.044 11.352 13.499 9.802 13.499 8.205 L 13.499 7.031 C 13.499 4.366 11.548 2.159 8.999 1.754 L 8.999 1.125 C 8.999 0.503 8.496 0 7.874 0 Z M 7.874 3.375 L 8.155 3.375 C 10.173 3.375 11.812 5.013 11.812 7.031 L 11.812 8.205 C 11.812 9.889 12.3 11.531 13.207 12.938 L 2.541 12.938 C 3.448 11.531 3.937 9.889 3.937 8.205 L 3.937 7.031 C 3.937 5.013 5.575 3.375 7.593 3.375 L 7.874 3.375 Z M 10.124 15.75 L 7.874 15.75 L 5.624 15.75 C 5.624 16.348 5.86 16.921 6.282 17.343 C 6.704 17.764 7.277 18 7.874 18 C 8.472 18 9.045 17.764 9.467 17.343 C 9.889 16.921 10.124 16.348 10.124 15.75 Z" fill="currentColor" fill-rule="nonzero"></path>
</svg>