<svg xmlns="http://www.w3.org/2000/svg" width="18" height="18" viewBox="0 0 18 18" fill="none">
  <path d="M 14.291 14.048 C 13.62 12.407 12.006 11.25 10.125 11.25 L 7.875 11.25 C 5.994 11.25 4.38 12.407 3.709 14.048 C 2.457 12.734 1.688 10.958 1.688 9 C 1.688 4.961 4.961 1.688 9 1.688 C 13.039 1.688 16.313 4.961 16.313 9 C 16.313 10.958 15.543 12.734 14.291 14.048 Z M 12.881 15.198 C 11.756 15.905 10.427 16.313 9 16.313 C 7.573 16.313 6.244 15.905 5.115 15.198 C 5.372 13.908 6.511 12.938 7.875 12.938 L 10.125 12.938 C 11.489 12.938 12.628 13.908 12.885 15.198 L 12.881 15.198 Z M 9 18 C 11.387 18 13.676 17.052 15.364 15.364 C 17.052 13.676 18 11.387 18 9 C 18 6.613 17.052 4.324 15.364 2.636 C 13.676 0.948 11.387 0 9 0 C 6.613 0 4.324 0.948 2.636 2.636 C 0.948 4.324 0 6.613 0 9 C 0 11.387 0.948 13.676 2.636 15.364 C 4.324 17.052 6.613 18 9 18 Z M 9 8.438 C 8.627 8.438 8.269 8.289 8.006 8.026 C 7.742 7.762 7.594 7.404 7.594 7.031 C 7.594 6.658 7.742 6.301 8.006 6.037 C 8.269 5.773 8.627 5.625 9 5.625 C 9.373 5.625 9.731 5.773 9.994 6.037 C 10.258 6.301 10.406 6.658 10.406 7.031 C 10.406 7.404 10.258 7.762 9.994 8.026 C 9.731 8.289 9.373 8.438 9 8.438 Z M 5.906 7.031 C 5.906 7.852 6.232 8.639 6.812 9.219 C 7.393 9.799 8.179 10.125 9 10.125 C 9.821 10.125 10.607 9.799 11.188 9.219 C 11.768 8.639 12.094 7.852 12.094 7.031 C 12.094 6.211 11.768 5.424 11.188 4.844 C 10.607 4.263 9.821 3.938 9 3.938 C 8.179 3.938 7.393 4.263 6.812 4.844 C 6.232 5.424 5.906 6.211 5.906 7.031 Z" fill="currentColor" fill-rule="nonzero"></path>
</svg>