<svg xmlns="http://www.w3.org/2000/svg" width="20.250" height="15.750" viewBox="0 0 20.250 15.750" fill="none">
  <path d="M 18.563 4.5 L 18.563 13.5 C 18.563 13.809 18.309 14.063 18 14.063 L 11.25 14.063 C 11.25 12.509 9.991 11.25 8.438 11.25 L 6.188 11.25 C 4.634 11.25 3.375 12.509 3.375 14.063 L 2.25 14.063 C 1.941 14.063 1.688 13.809 1.688 13.5 L 1.688 4.5 L 18.563 4.5 Z M 2.25 0 C 1.009 0 0 1.009 0 2.25 L 0 13.5 C 0 14.741 1.009 15.75 2.25 15.75 L 18 15.75 C 19.241 15.75 20.25 14.741 20.25 13.5 L 20.25 2.25 C 20.25 1.009 19.241 0 18 0 L 2.25 0 Z M 9.563 7.875 C 9.563 7.278 9.325 6.706 8.903 6.284 C 8.482 5.862 7.909 5.625 7.313 5.625 C 6.716 5.625 6.143 5.862 5.722 6.284 C 5.3 6.706 5.063 7.278 5.063 7.875 C 5.063 8.472 5.3 9.044 5.722 9.466 C 6.143 9.888 6.716 10.125 7.313 10.125 C 7.909 10.125 8.482 9.888 8.903 9.466 C 9.325 9.044 9.563 8.472 9.563 7.875 Z M 13.219 6.188 C 12.751 6.188 12.375 6.564 12.375 7.031 C 12.375 7.499 12.751 7.875 13.219 7.875 L 16.031 7.875 C 16.499 7.875 16.875 7.499 16.875 7.031 C 16.875 6.564 16.499 6.188 16.031 6.188 L 13.219 6.188 Z M 13.219 9.563 C 12.751 9.563 12.375 9.939 12.375 10.406 C 12.375 10.874 12.751 11.25 13.219 11.25 L 16.031 11.25 C 16.499 11.25 16.875 10.874 16.875 10.406 C 16.875 9.939 16.499 9.563 16.031 9.563 L 13.219 9.563 Z" fill="currentColor" fill-rule="nonzero"></path>
</svg>