<svg xmlns="http://www.w3.org/2000/svg" width="24.889" height="24.889" viewBox="0 0 24.889 24.889" fill="none">
  <path d="M 24.889 12.444 L 23.917 12.444 C 23.917 18.78 18.78 23.917 12.444 23.917 L 12.444 24.889 L 12.444 25.861 C 19.854 25.861 25.861 19.854 25.861 12.444 L 24.889 12.444 Z M 12.444 24.889 L 12.444 23.917 C 6.109 23.917 0.972 18.78 0.972 12.444 L 0 12.444 L -0.972 12.444 C -0.972 19.854 5.035 25.861 12.444 25.861 L 12.444 24.889 Z M 0 12.444 L 0.972 12.444 C 0.972 6.109 6.109 0.972 12.444 0.972 L 12.444 0 L 12.444 -0.972 C 5.035 -0.972 -0.972 5.035 -0.972 12.444 L 0 12.444 Z M 12.444 0 L 12.444 0.972 C 18.78 0.972 23.917 6.109 23.917 12.444 L 24.889 12.444 L 25.861 12.444 C 25.861 5.035 19.854 -0.972 12.444 -0.972 L 12.444 0 Z" fill="currentColor" fill-rule="nonzero"></path>
</svg>